solid OpenSCAD_Model
  facet normal -1 0 0
    outer loop
      vertex -10 0 0
      vertex -10 2 1.6
      vertex -10 2 0
    endloop
  endfacet
  facet normal -1 -0 0
    outer loop
      vertex -10 2 1.6
      vertex -10 0 0
      vertex -10 0 1.6
    endloop
  endfacet
  facet normal 0 0 1
    outer loop
      vertex -9 2 1.6
      vertex -10 2 1.6
      vertex -9 1 1.6
    endloop
  endfacet
  facet normal -0 0 1
    outer loop
      vertex -9 1 1.6
      vertex -8 0 1.6
      vertex -8 1 1.6
    endloop
  endfacet
  facet normal 0 0 1
    outer loop
      vertex -10 0 1.6
      vertex -9 1 1.6
      vertex -10 2 1.6
    endloop
  endfacet
  facet normal 0 0 1
    outer loop
      vertex -9 1 1.6
      vertex -10 0 1.6
      vertex -8 0 1.6
    endloop
  endfacet
  facet normal -1 0 0
    outer loop
      vertex -8 10 0
      vertex -8 1 0
      vertex -8 10 1.6
    endloop
  endfacet
  facet normal -1 0 0
    outer loop
      vertex -8 11 1.6
      vertex -8 12 0
      vertex -8 11 0
    endloop
  endfacet
  facet normal -1 0 0
    outer loop
      vertex -8 12 0
      vertex -8 11 1.6
      vertex -8 12 3.2
    endloop
  endfacet
  facet normal -1 0 0
    outer loop
      vertex -8 10 1.6
      vertex -8 12 3.2
      vertex -8 11 1.6
    endloop
  endfacet
  facet normal -1 0 0
    outer loop
      vertex -8 1 1.6
      vertex -8 10 1.6
      vertex -8 1 0
    endloop
  endfacet
  facet normal -1 0 0
    outer loop
      vertex -8 0 3.2
      vertex -8 10 1.6
      vertex -8 1 1.6
    endloop
  endfacet
  facet normal -1 0 0
    outer loop
      vertex -8 0 3.2
      vertex -8 1 1.6
      vertex -8 0 1.6
    endloop
  endfacet
  facet normal -1 0 0
    outer loop
      vertex -8 10 1.6
      vertex -8 0 3.2
      vertex -8 12 3.2
    endloop
  endfacet
  facet normal 0 1 -0
    outer loop
      vertex -8 1 0
      vertex -9 1 1.6
      vertex -8 1 1.6
    endloop
  endfacet
  facet normal 0 1 0
    outer loop
      vertex -9 1 1.6
      vertex -8 1 0
      vertex -9 1 0
    endloop
  endfacet
  facet normal 0 0 -1
    outer loop
      vertex -8 10 0
      vertex -9 11 0
      vertex -8 11 0
    endloop
  endfacet
  facet normal 0 0 -1
    outer loop
      vertex -10 10 0
      vertex -9 11 0
      vertex -8 10 0
    endloop
  endfacet
  facet normal 0 0 -1
    outer loop
      vertex -10 12 0
      vertex -9 11 0
      vertex -10 10 0
    endloop
  endfacet
  facet normal 0 0 -1
    outer loop
      vertex -9 11 0
      vertex -10 12 0
      vertex -9 12 0
    endloop
  endfacet
  facet normal 0 0 -1
    outer loop
      vertex -3 0 0
      vertex -4 1 0
      vertex -3 2 0
    endloop
  endfacet
  facet normal 0 0 -1
    outer loop
      vertex -3 0 0
      vertex -5 1 0
      vertex -4 1 0
    endloop
  endfacet
  facet normal 0 0 -1
    outer loop
      vertex -8 10 0
      vertex -5 10 0
      vertex -5 1 0
    endloop
  endfacet
  facet normal 0 0 -1
    outer loop
      vertex -5 10 0
      vertex -8 10 0
      vertex -5 11 0
    endloop
  endfacet
  facet normal 0 0 -1
    outer loop
      vertex -8 10 0
      vertex -5 1 0
      vertex -8 1 0
    endloop
  endfacet
  facet normal 0 0 -1
    outer loop
      vertex -3 0 0
      vertex -8 1 0
      vertex -5 1 0
    endloop
  endfacet
  facet normal 0 0 -1
    outer loop
      vertex -10 0 0
      vertex -8 1 0
      vertex -3 0 0
    endloop
  endfacet
  facet normal -0 0 -1
    outer loop
      vertex -8 1 0
      vertex -10 0 0
      vertex -9 1 0
    endloop
  endfacet
  facet normal 0 0 -1
    outer loop
      vertex -10 2 0
      vertex -9 1 0
      vertex -10 0 0
    endloop
  endfacet
  facet normal 0 0 -1
    outer loop
      vertex -9 1 0
      vertex -10 2 0
      vertex -9 2 0
    endloop
  endfacet
  facet normal -0 0 -1
    outer loop
      vertex -3 2 0
      vertex -4 1 0
      vertex -4 2 0
    endloop
  endfacet
  facet normal 0 0 -1
    outer loop
      vertex -3 10 0
      vertex -4 11 0
      vertex -3 12 0
    endloop
  endfacet
  facet normal 0 0 -1
    outer loop
      vertex -5 10 0
      vertex -4 11 0
      vertex -3 10 0
    endloop
  endfacet
  facet normal -0 0 -1
    outer loop
      vertex -4 11 0
      vertex -5 10 0
      vertex -5 11 0
    endloop
  endfacet
  facet normal -0 0 -1
    outer loop
      vertex -3 12 0
      vertex -4 11 0
      vertex -4 12 0
    endloop
  endfacet
  facet normal 0 0 -1
    outer loop
      vertex -8 11 0
      vertex -5 11 0
      vertex -8 10 0
    endloop
  endfacet
  facet normal 0 0 -1
    outer loop
      vertex -5 11 0
      vertex -8 11 0
      vertex -5 12 0
    endloop
  endfacet
  facet normal -0 0 -1
    outer loop
      vertex -5 12 0
      vertex -8 11 0
      vertex -8 12 0
    endloop
  endfacet
  facet normal 0 -1 0
    outer loop
      vertex -10 0 0
      vertex -8 0 1.6
      vertex -10 0 1.6
    endloop
  endfacet
  facet normal 0 -1 -0
    outer loop
      vertex -8 0 1.6
      vertex -10 0 0
      vertex -7 0 1.6
    endloop
  endfacet
  facet normal 0 -1 -0
    outer loop
      vertex -7 0 1.6
      vertex -10 0 0
      vertex -6 0 1.6
    endloop
  endfacet
  facet normal 0 -1 0
    outer loop
      vertex -3 0 0
      vertex -6 0 1.6
      vertex -10 0 0
    endloop
  endfacet
  facet normal 0 -1 0
    outer loop
      vertex -6 0 1.6
      vertex -3 0 0
      vertex -5 0 1.6
    endloop
  endfacet
  facet normal 0 -1 0
    outer loop
      vertex -5 0 1.6
      vertex -3 0 0
      vertex -3 0 1.6
    endloop
  endfacet
  facet normal 0 -1 0
    outer loop
      vertex -8 0 1.6
      vertex -7 0 3.2
      vertex -8 0 3.2
    endloop
  endfacet
  facet normal 0 -1 -0
    outer loop
      vertex -7 0 3.2
      vertex -8 0 1.6
      vertex -7 0 1.6
    endloop
  endfacet
  facet normal 0 -1 0
    outer loop
      vertex -6 0 1.6
      vertex -5 0 3.2
      vertex -6 0 3.2
    endloop
  endfacet
  facet normal 0 -1 -0
    outer loop
      vertex -5 0 3.2
      vertex -6 0 1.6
      vertex -5 0 1.6
    endloop
  endfacet
  facet normal 1 -0 0
    outer loop
      vertex -9 1 1.6
      vertex -9 2 0
      vertex -9 2 1.6
    endloop
  endfacet
  facet normal 1 0 0
    outer loop
      vertex -9 2 0
      vertex -9 1 1.6
      vertex -9 1 0
    endloop
  endfacet
  facet normal 0 1 -0
    outer loop
      vertex -9 2 0
      vertex -10 2 1.6
      vertex -9 2 1.6
    endloop
  endfacet
  facet normal 0 1 0
    outer loop
      vertex -10 2 1.6
      vertex -9 2 0
      vertex -10 2 0
    endloop
  endfacet
  facet normal 1 0 0
    outer loop
      vertex -5 12 3.2
      vertex -5 11 1.6
      vertex -5 12 0
    endloop
  endfacet
  facet normal 1 0 0
    outer loop
      vertex -5 12 3.2
      vertex -5 10 1.6
      vertex -5 11 1.6
    endloop
  endfacet
  facet normal 1 0 0
    outer loop
      vertex -5 10 1.6
      vertex -5 1 1.6
      vertex -5 10 0
    endloop
  endfacet
  facet normal 1 -0 0
    outer loop
      vertex -5 0 3.2
      vertex -5 10 1.6
      vertex -5 12 3.2
    endloop
  endfacet
  facet normal 1 0 0
    outer loop
      vertex -5 10 1.6
      vertex -5 0 3.2
      vertex -5 1 1.6
    endloop
  endfacet
  facet normal 1 0 0
    outer loop
      vertex -5 1 1.6
      vertex -5 0 3.2
      vertex -5 0 1.6
    endloop
  endfacet
  facet normal 1 0 0
    outer loop
      vertex -5 12 0
      vertex -5 11 1.6
      vertex -5 11 0
    endloop
  endfacet
  facet normal 1 0 0
    outer loop
      vertex -5 10 0
      vertex -5 1 1.6
      vertex -5 1 0
    endloop
  endfacet
  facet normal 0 0 1
    outer loop
      vertex -4 1 1.6
      vertex -3 2 1.6
      vertex -4 2 1.6
    endloop
  endfacet
  facet normal 0 0 1
    outer loop
      vertex -3 2 1.6
      vertex -4 1 1.6
      vertex -3 0 1.6
    endloop
  endfacet
  facet normal 0 0 1
    outer loop
      vertex -5 0 1.6
      vertex -4 1 1.6
      vertex -5 1 1.6
    endloop
  endfacet
  facet normal 0 0 1
    outer loop
      vertex -4 1 1.6
      vertex -5 0 1.6
      vertex -3 0 1.6
    endloop
  endfacet
  facet normal 1 -0 0
    outer loop
      vertex -3 0 1.6
      vertex -3 2 0
      vertex -3 2 1.6
    endloop
  endfacet
  facet normal 1 0 0
    outer loop
      vertex -3 2 0
      vertex -3 0 1.6
      vertex -3 0 0
    endloop
  endfacet
  facet normal 0 1 -0
    outer loop
      vertex -4 1 0
      vertex -5 1 1.6
      vertex -4 1 1.6
    endloop
  endfacet
  facet normal 0 1 0
    outer loop
      vertex -5 1 1.6
      vertex -4 1 0
      vertex -5 1 0
    endloop
  endfacet
  facet normal -1 0 0
    outer loop
      vertex -4 1 0
      vertex -4 2 1.6
      vertex -4 2 0
    endloop
  endfacet
  facet normal -1 -0 0
    outer loop
      vertex -4 2 1.6
      vertex -4 1 0
      vertex -4 1 1.6
    endloop
  endfacet
  facet normal 0 1 -0
    outer loop
      vertex -3 2 0
      vertex -4 2 1.6
      vertex -3 2 1.6
    endloop
  endfacet
  facet normal 0 1 0
    outer loop
      vertex -4 2 1.6
      vertex -3 2 0
      vertex -4 2 0
    endloop
  endfacet
  facet normal -1 0 0
    outer loop
      vertex -10 10 0
      vertex -10 12 1.6
      vertex -10 12 0
    endloop
  endfacet
  facet normal -1 -0 0
    outer loop
      vertex -10 12 1.6
      vertex -10 10 0
      vertex -10 10 1.6
    endloop
  endfacet
  facet normal 0 0 1
    outer loop
      vertex -9 12 1.6
      vertex -10 12 1.6
      vertex -9 11 1.6
    endloop
  endfacet
  facet normal -0 0 1
    outer loop
      vertex -9 11 1.6
      vertex -8 10 1.6
      vertex -8 11 1.6
    endloop
  endfacet
  facet normal 0 0 1
    outer loop
      vertex -10 10 1.6
      vertex -9 11 1.6
      vertex -10 12 1.6
    endloop
  endfacet
  facet normal 0 0 1
    outer loop
      vertex -9 11 1.6
      vertex -10 10 1.6
      vertex -8 10 1.6
    endloop
  endfacet
  facet normal 0 1 -0
    outer loop
      vertex -8 11 0
      vertex -9 11 1.6
      vertex -8 11 1.6
    endloop
  endfacet
  facet normal 0 1 0
    outer loop
      vertex -9 11 1.6
      vertex -8 11 0
      vertex -9 11 0
    endloop
  endfacet
  facet normal 0 -1 0
    outer loop
      vertex -10 10 0
      vertex -8 10 1.6
      vertex -10 10 1.6
    endloop
  endfacet
  facet normal 0 -1 -0
    outer loop
      vertex -8 10 1.6
      vertex -10 10 0
      vertex -8 10 0
    endloop
  endfacet
  facet normal 1 -0 0
    outer loop
      vertex -9 11 1.6
      vertex -9 12 0
      vertex -9 12 1.6
    endloop
  endfacet
  facet normal 1 0 0
    outer loop
      vertex -9 12 0
      vertex -9 11 1.6
      vertex -9 11 0
    endloop
  endfacet
  facet normal 0 1 -0
    outer loop
      vertex -9 12 0
      vertex -10 12 1.6
      vertex -9 12 1.6
    endloop
  endfacet
  facet normal 0 1 0
    outer loop
      vertex -10 12 1.6
      vertex -9 12 0
      vertex -10 12 0
    endloop
  endfacet
  facet normal 0 0 1
    outer loop
      vertex -4 11 1.6
      vertex -3 12 1.6
      vertex -4 12 1.6
    endloop
  endfacet
  facet normal 0 0 1
    outer loop
      vertex -3 12 1.6
      vertex -4 11 1.6
      vertex -3 10 1.6
    endloop
  endfacet
  facet normal 0 0 1
    outer loop
      vertex -5 10 1.6
      vertex -4 11 1.6
      vertex -5 11 1.6
    endloop
  endfacet
  facet normal 0 0 1
    outer loop
      vertex -4 11 1.6
      vertex -5 10 1.6
      vertex -3 10 1.6
    endloop
  endfacet
  facet normal 1 -0 0
    outer loop
      vertex -3 10 1.6
      vertex -3 12 0
      vertex -3 12 1.6
    endloop
  endfacet
  facet normal 1 0 0
    outer loop
      vertex -3 12 0
      vertex -3 10 1.6
      vertex -3 10 0
    endloop
  endfacet
  facet normal 0 -1 0
    outer loop
      vertex -5 10 0
      vertex -3 10 1.6
      vertex -5 10 1.6
    endloop
  endfacet
  facet normal 0 -1 -0
    outer loop
      vertex -3 10 1.6
      vertex -5 10 0
      vertex -3 10 0
    endloop
  endfacet
  facet normal 0 1 -0
    outer loop
      vertex -4 11 0
      vertex -5 11 1.6
      vertex -4 11 1.6
    endloop
  endfacet
  facet normal 0 1 0
    outer loop
      vertex -5 11 1.6
      vertex -4 11 0
      vertex -5 11 0
    endloop
  endfacet
  facet normal -1 0 0
    outer loop
      vertex -4 11 0
      vertex -4 12 1.6
      vertex -4 12 0
    endloop
  endfacet
  facet normal -1 -0 0
    outer loop
      vertex -4 12 1.6
      vertex -4 11 0
      vertex -4 11 1.6
    endloop
  endfacet
  facet normal 0 1 -0
    outer loop
      vertex -3 12 0
      vertex -4 12 1.6
      vertex -3 12 1.6
    endloop
  endfacet
  facet normal 0 1 0
    outer loop
      vertex -4 12 1.6
      vertex -3 12 0
      vertex -4 12 0
    endloop
  endfacet
  facet normal -0 0 1
    outer loop
      vertex -7 12 1.6
      vertex -6 0 1.6
      vertex -6 12 1.6
    endloop
  endfacet
  facet normal 0 0 1
    outer loop
      vertex -6 0 1.6
      vertex -7 12 1.6
      vertex -7 0 1.6
    endloop
  endfacet
  facet normal 0 1 0
    outer loop
      vertex -5 12 3.2
      vertex -6 12 1.6
      vertex -6 12 3.2
    endloop
  endfacet
  facet normal 0 1 0
    outer loop
      vertex -6 12 1.6
      vertex -5 12 0
      vertex -7 12 1.6
    endloop
  endfacet
  facet normal 0 1 -0
    outer loop
      vertex -5 12 0
      vertex -6 12 1.6
      vertex -5 12 3.2
    endloop
  endfacet
  facet normal 0 1 -0
    outer loop
      vertex -7 12 1.6
      vertex -8 12 3.2
      vertex -7 12 3.2
    endloop
  endfacet
  facet normal 0 1 0
    outer loop
      vertex -7 12 1.6
      vertex -8 12 0
      vertex -8 12 3.2
    endloop
  endfacet
  facet normal 0 1 0
    outer loop
      vertex -8 12 0
      vertex -7 12 1.6
      vertex -5 12 0
    endloop
  endfacet
  facet normal -0 0 1
    outer loop
      vertex -8 12 3.2
      vertex -7 0 3.2
      vertex -7 12 3.2
    endloop
  endfacet
  facet normal 0 0 1
    outer loop
      vertex -7 0 3.2
      vertex -8 12 3.2
      vertex -8 0 3.2
    endloop
  endfacet
  facet normal 1 -0 0
    outer loop
      vertex -7 0 3.2
      vertex -7 12 1.6
      vertex -7 12 3.2
    endloop
  endfacet
  facet normal 1 0 0
    outer loop
      vertex -7 12 1.6
      vertex -7 0 3.2
      vertex -7 0 1.6
    endloop
  endfacet
  facet normal -1 0 0
    outer loop
      vertex -6 0 1.6
      vertex -6 12 3.2
      vertex -6 12 1.6
    endloop
  endfacet
  facet normal -1 -0 0
    outer loop
      vertex -6 12 3.2
      vertex -6 0 1.6
      vertex -6 0 3.2
    endloop
  endfacet
  facet normal -0 0 1
    outer loop
      vertex -6 12 3.2
      vertex -5 0 3.2
      vertex -5 12 3.2
    endloop
  endfacet
  facet normal 0 0 1
    outer loop
      vertex -5 0 3.2
      vertex -6 12 3.2
      vertex -6 0 3.2
    endloop
  endfacet
endsolid OpenSCAD_Model
